 <svg version="1.0" xmlns="http://www.w3.org/2000/svg" width="700.000000pt" height="700.000000pt" viewBox="0 0 700.000000 700.000000" preserveAspectRatio="xMidYMid meet">
<metadata>
Created by potrace 1.12, written by Peter Selinger 2001-2015
</metadata>
<g transform="translate(0.000000,700.000000) scale(0.100000,-0.100000)" fill="#000000" stroke="none">
<path d="M3230 6994 c-84 -7 -245 -26 -290 -34 -25 -5 -74 -14 -110 -20 -342
-61 -753 -213 -1065 -393 -153 -88 -310 -196 -500 -346 -90 -71 -395 -376
-466 -466 -264 -336 -408 -577 -542 -906 -96 -236 -159 -445 -197 -659 -6 -36
-15 -85 -20 -110 -27 -142 -35 -275 -35 -560 0 -285 8 -418 35 -560 5 -25 14
-74 20 -110 72 -402 255 -863 479 -1205 25 -38 50 -77 56 -86 62 -100 221
-299 339 -427 282 -303 631 -564 1001 -750 269 -135 616 -252 895 -302 36 -6
85 -15 110 -20 142 -27 275 -35 560 -35 285 0 418 8 560 35 25 5 74 14 110 20
489 87 1028 326 1430 634 294 225 483 414 706 706 309 406 546 940 634 1430 6
36 15 85 20 110 27 142 35 275 35 560 0 285 -8 418 -35 560 -5 25 -14 74 -20
110 -87 488 -329 1033 -634 1430 -131 170 -171 217 -330 376 -94 94 -202 195
-241 225 -336 264 -582 411 -905 542 -319 128 -503 176 -910 238 -72 11 -596
21 -690 13z m615 -85 c110 -11 305 -41 380 -58 666 -157 1204 -448 1673 -905
127 -123 279 -300 373 -431 66 -92 129 -185 129 -190 0 -2 20 -35 43 -72 93
-145 223 -425 298 -642 128 -368 180 -689 180 -1111 0 -422 -52 -743 -180
-1111 -75 -217 -205 -497 -298 -642 -23 -37 -43 -70 -43 -72 0 -11 -146 -217
-209 -295 -249 -310 -504 -543 -836 -761 -194 -128 -499 -277 -730 -356 -99
-34 -312 -95 -370 -107 -16 -3 -52 -11 -80 -17 -380 -81 -970 -81 -1350 0 -27
6 -63 14 -80 17 -16 3 -84 21 -150 40 -719 200 -1313 594 -1786 1184 -63 78
-209 284 -209 295 0 2 -20 35 -43 72 -93 145 -223 425 -298 642 -128 368 -180
690 -180 1111 0 421 52 743 180 1111 75 217 205 497 298 642 23 37 43 70 43
72 0 5 63 98 129 190 94 131 246 308 373 431 469 457 1007 748 1673 905 288
67 725 91 1070 58z"></path>
<path d="M3585 4889 c-525 -53 -959 -408 -1118 -914 -54 -173 -62 -234 -62
-475 0 -199 3 -237 23 -328 33 -147 66 -242 130 -366 175 -345 492 -584 885
-667 137 -30 407 -32 542 -6 242 48 403 121 563 255 l53 45 -42 43 -41 42 -57
-46 c-124 -101 -250 -164 -418 -207 -338 -88 -689 -34 -972 149 -86 55 -225
187 -291 275 -185 246 -282 612 -250 936 22 226 91 434 201 611 103 165 295
341 468 429 80 40 218 84 318 101 126 22 366 15 468 -13 170 -47 313 -123 445
-235 l66 -55 48 41 48 42 -58 53 c-236 215 -597 326 -949 290z"></path>
</g>
</svg>